<?xml version="1.0" ?><svg height="24px" version="1.1" viewBox="0 0 24 24" width="24px" xmlns="http://www.w3.org/2000/svg" xmlns:sketch="http://www.bohemiancoding.com/sketch/ns" xmlns:xlink="http://www.w3.org/1999/xlink"><title/><desc/><defs/><g fill="none" fill-rule="evenodd" id="miu" stroke="none" stroke-width="1"><g id="Artboard-1" transform="translate(-323.000000, -659.000000)"><g id="slice" transform="translate(215.000000, 119.000000)"/><path d="M335,682 C341.075133,682 346,677.075133 346,671 C346,664.924867 341.075133,660 335,660 C328.924867,660 324,664.924867 324,671 C324,677.075133 328.924867,682 335,682 Z M333.336149,677.348581 L333.336149,670.999619 L332.045873,670.999619 L332.045873,668.895097 L333.336149,668.895097 L333.336149,667.622408 C333.336149,665.905769 333.849398,664.667894 335.728971,664.667894 L337.964998,664.667894 L337.964998,666.768095 L336.390493,666.768095 C335.602028,666.768095 335.422354,667.292038 335.422354,667.840712 L335.422354,668.895097 L337.848788,668.895097 L337.517597,670.999619 L335.422354,670.999619 L335.422354,677.348581 L333.336149,677.348581 Z" fill="#000000" id="circle-social-facebook-glyph"/></g></g></svg>